<svg width="184" height="62" viewBox="0 0 184 62" fill="none" xmlns="http://www.w3.org/2000/svg">
<g filter="url(#filter0_b_781_10)">
<rect width="62" height="62" rx="13" fill="#D9D9D9" fill-opacity="0.06"/>
<rect x="0.5" y="0.5" width="61" height="61" rx="12.5" stroke="url(#paint0_linear_781_10)"/>
<rect x="0.5" y="0.5" width="61" height="61" rx="12.5" stroke="url(#paint1_linear_781_10)"/>
</g>
<path d="M91.35 40V22.5H98.8C99.95 22.5 100.917 22.6667 101.7 23C102.5 23.3333 103.1 23.8333 103.5 24.5C103.917 25.15 104.125 25.9417 104.125 26.875C104.125 27.8417 103.867 28.6583 103.35 29.325C102.833 29.9917 102.108 30.45 101.175 30.7L101.15 30.2C101.933 30.3667 102.617 30.6667 103.2 31.1C103.783 31.5167 104.233 32.0417 104.55 32.675C104.883 33.2917 105.05 34 105.05 34.8C105.05 35.65 104.908 36.4 104.625 37.05C104.358 37.7 103.958 38.2417 103.425 38.675C102.892 39.1083 102.258 39.4417 101.525 39.675C100.792 39.8917 99.9667 40 99.05 40H91.35ZM94.525 37.075H98.9C99.5167 37.075 100.033 36.9833 100.45 36.8C100.883 36.6167 101.208 36.35 101.425 36C101.658 35.6333 101.775 35.2 101.775 34.7C101.775 34.2333 101.65 33.8333 101.4 33.5C101.167 33.1667 100.825 32.9167 100.375 32.75C99.925 32.5667 99.3917 32.475 98.775 32.475H94.525V37.075ZM94.525 29.675H98.5C98.9833 29.675 99.4 29.5833 99.75 29.4C100.117 29.2167 100.4 28.9667 100.6 28.65C100.8 28.3333 100.9 27.9667 100.9 27.55C100.9 26.8833 100.675 26.3667 100.225 26C99.775 25.6167 99.1167 25.425 98.25 25.425H94.525V29.675ZM112.862 40L119.687 22.5H122.737L129.512 40H126.137L122.387 30.05C122.304 29.85 122.187 29.5333 122.037 29.1C121.904 28.6667 121.754 28.2 121.587 27.7C121.42 27.1833 121.27 26.7083 121.137 26.275C121.004 25.825 120.904 25.5 120.837 25.3L121.462 25.275C121.362 25.6083 121.245 25.9833 121.112 26.4C120.979 26.8167 120.837 27.25 120.687 27.7C120.537 28.15 120.387 28.5833 120.237 29C120.104 29.4167 119.979 29.7917 119.862 30.125L116.112 40H112.862ZM115.962 36L117.087 33.175H125.062L126.262 36H115.962ZM145.455 40.25C144.188 40.25 143.03 40.0333 141.98 39.6C140.93 39.1667 140.021 38.55 139.255 37.75C138.488 36.9333 137.888 35.975 137.455 34.875C137.038 33.7583 136.83 32.5417 136.83 31.225C136.83 29.9583 137.055 28.7833 137.505 27.7C137.955 26.6167 138.58 25.6667 139.38 24.85C140.18 24.0333 141.113 23.4 142.18 22.95C143.246 22.5 144.405 22.275 145.655 22.275C146.505 22.275 147.33 22.4 148.13 22.65C148.93 22.9 149.663 23.25 150.33 23.7C150.996 24.1333 151.555 24.6417 152.005 25.225L149.93 27.5C149.496 27.05 149.046 26.675 148.58 26.375C148.13 26.0583 147.655 25.825 147.155 25.675C146.671 25.5083 146.171 25.425 145.655 25.425C144.888 25.425 144.163 25.5667 143.48 25.85C142.813 26.1333 142.23 26.5333 141.73 27.05C141.246 27.5667 140.863 28.1833 140.58 28.9C140.296 29.6 140.155 30.3833 140.155 31.25C140.155 32.1333 140.288 32.9333 140.555 33.65C140.838 34.3667 141.23 34.9833 141.73 35.5C142.246 36.0167 142.855 36.4167 143.555 36.7C144.271 36.9667 145.055 37.1 145.905 37.1C146.455 37.1 146.988 37.025 147.505 36.875C148.021 36.725 148.496 36.5167 148.93 36.25C149.38 35.9667 149.788 35.6417 150.155 35.275L151.755 37.85C151.355 38.3 150.821 38.7083 150.155 39.075C149.488 39.4417 148.738 39.7333 147.905 39.95C147.088 40.15 146.271 40.25 145.455 40.25ZM163.945 34.775L163.445 31.55L172.445 22.5H176.52L163.945 34.775ZM161.37 40V22.5H164.62V40H161.37ZM172.845 40L166.22 31.175L168.52 29.2L176.795 40H172.845Z" fill="#878787"/>
<path d="M43 30.5C43.8284 30.5 44.5 31.1716 44.5 32C44.5 32.8284 43.8284 33.5 43 33.5V30.5ZM16.9393 33.0607C16.3536 32.4749 16.3536 31.5251 16.9393 30.9393L26.4853 21.3934C27.0711 20.8076 28.0208 20.8076 28.6066 21.3934C29.1924 21.9792 29.1924 22.9289 28.6066 23.5147L20.1213 32L28.6066 40.4853C29.1924 41.0711 29.1924 42.0208 28.6066 42.6066C28.0208 43.1924 27.0711 43.1924 26.4853 42.6066L16.9393 33.0607ZM43 33.5H18V30.5H43V33.5Z" fill="white"/>
<defs>
<filter id="filter0_b_781_10" x="-25" y="-25" width="112" height="112" filterUnits="userSpaceOnUse" color-interpolation-filters="sRGB">
<feFlood flood-opacity="0" result="BackgroundImageFix"/>
<feGaussianBlur in="BackgroundImageFix" stdDeviation="12.5"/>
<feComposite in2="SourceAlpha" operator="in" result="effect1_backgroundBlur_781_10"/>
<feBlend mode="normal" in="SourceGraphic" in2="effect1_backgroundBlur_781_10" result="shape"/>
</filter>
<linearGradient id="paint0_linear_781_10" x1="-4.42857" y1="-2.54098" x2="31.3305" y2="15.5918" gradientUnits="userSpaceOnUse">
<stop stop-color="#5CC4DC"/>
<stop offset="0.867741" stop-color="#5CC4DC" stop-opacity="0"/>
</linearGradient>
<linearGradient id="paint1_linear_781_10" x1="64.7679" y1="78.7705" x2="35.8691" y2="58.1463" gradientUnits="userSpaceOnUse">
<stop stop-color="#15EDED"/>
<stop offset="1" stop-color="#15EDED" stop-opacity="0"/>
</linearGradient>
</defs>
</svg>
