<svg width="62" height="62" viewBox="0 0 62 62" fill="none" xmlns="http://www.w3.org/2000/svg">
<g filter="url(#filter0_b_1_2)">
<rect width="62" height="62" rx="13" fill="#D9D9D9" fill-opacity="0.06"/>
<rect x="0.5" y="0.5" width="61" height="61" rx="12.5" stroke="url(#paint0_linear_1_2)"/>
<rect x="0.5" y="0.5" width="61" height="61" rx="12.5" stroke="url(#paint1_linear_1_2)"/>
</g>
<path d="M43 30.5C43.8284 30.5 44.5 31.1716 44.5 32C44.5 32.8284 43.8284 33.5 43 33.5V30.5ZM16.9393 33.0607C16.3536 32.4749 16.3536 31.5251 16.9393 30.9393L26.4853 21.3934C27.0711 20.8076 28.0208 20.8076 28.6066 21.3934C29.1924 21.9792 29.1924 22.9289 28.6066 23.5147L20.1213 32L28.6066 40.4853C29.1924 41.0711 29.1924 42.0208 28.6066 42.6066C28.0208 43.1924 27.0711 43.1924 26.4853 42.6066L16.9393 33.0607ZM43 33.5H18V30.5H43V33.5Z" fill="white"/>
<defs>
<filter id="filter0_b_1_2" x="-25" y="-25" width="112" height="112" filterUnits="userSpaceOnUse" color-interpolation-filters="sRGB">
<feFlood flood-opacity="0" result="BackgroundImageFix"/>
<feGaussianBlur in="BackgroundImageFix" stdDeviation="12.5"/>
<feComposite in2="SourceAlpha" operator="in" result="effect1_backgroundBlur_1_2"/>
<feBlend mode="normal" in="SourceGraphic" in2="effect1_backgroundBlur_1_2" result="shape"/>
</filter>
<linearGradient id="paint0_linear_1_2" x1="-4.42857" y1="-2.54098" x2="31.3305" y2="15.5918" gradientUnits="userSpaceOnUse">
<stop stop-color="#5CC4DC"/>
<stop offset="0.867741" stop-color="#5CC4DC" stop-opacity="0"/>
</linearGradient>
<linearGradient id="paint1_linear_1_2" x1="64.7679" y1="78.7705" x2="35.8691" y2="58.1463" gradientUnits="userSpaceOnUse">
<stop stop-color="#15EDED"/>
<stop offset="1" stop-color="#15EDED" stop-opacity="0"/>
</linearGradient>
</defs>
</svg>
