<svg width="112" height="61" viewBox="0 0 112 61" fill="none" xmlns="http://www.w3.org/2000/svg">
<g filter="url(#filter0_b_1_2)">
<rect width="112" height="61" rx="14" fill="#D9D9D9" fill-opacity="0.11"/>
<rect x="0.75" y="0.75" width="110.5" height="59.5" rx="13.25" stroke="url(#paint0_linear_1_2)" stroke-width="1.5"/>
<rect x="0.75" y="0.75" width="110.5" height="59.5" rx="13.25" stroke="url(#paint1_linear_1_2)" stroke-width="1.5"/>
</g>
<path d="M63.8958 38.2C59.8958 38.2 57.8758 36.6 57.8758 30.38C57.8758 24.6 59.8958 23 63.8958 23C67.9158 23 69.9358 24.6 69.9358 30.38C69.9358 36.6 67.9158 38.2 63.8958 38.2ZM63.8958 36.1C66.5158 36.1 67.6358 35.2 67.6358 30.38C67.6358 25.82 66.5158 25.1 63.8958 25.1C61.2958 25.1 60.1758 25.82 60.1758 30.38C60.1758 35.2 61.2958 36.1 63.8958 36.1ZM83.1179 38L77.5779 27.18H77.4979V38H75.1979V23.2H78.0979L84.0179 34.88H84.0979V23.2H86.3979V38H83.1179Z" fill="#4DDEFF"/>
<defs>
<filter id="filter0_b_1_2" x="-25" y="-25" width="162" height="111" filterUnits="userSpaceOnUse" color-interpolation-filters="sRGB">
<feFlood flood-opacity="0" result="BackgroundImageFix"/>
<feGaussianBlur in="BackgroundImageFix" stdDeviation="12.5"/>
<feComposite in2="SourceAlpha" operator="in" result="effect1_backgroundBlur_1_2"/>
<feBlend mode="normal" in="SourceGraphic" in2="effect1_backgroundBlur_1_2" result="shape"/>
</filter>
<linearGradient id="paint0_linear_1_2" x1="-8" y1="-2.5" x2="35.5" y2="38" gradientUnits="userSpaceOnUse">
<stop stop-color="#5CC4DC"/>
<stop offset="0.867741" stop-color="#5CC4DC" stop-opacity="0"/>
</linearGradient>
<linearGradient id="paint1_linear_1_2" x1="117" y1="77.5" x2="88" y2="39.5" gradientUnits="userSpaceOnUse">
<stop stop-color="#15EDED"/>
<stop offset="1" stop-color="#15EDED" stop-opacity="0"/>
</linearGradient>
</defs>
</svg>
