<svg width="235" height="62" viewBox="0 0 235 62" fill="none" xmlns="http://www.w3.org/2000/svg">
<g filter="url(#filter0_b_781_12)">
<rect width="62" height="62" rx="13" fill="#D9D9D9" fill-opacity="0.06"/>
<rect x="0.5" y="0.5" width="61" height="61" rx="12.5" stroke="url(#paint0_linear_781_12)"/>
<rect x="0.5" y="0.5" width="61" height="61" rx="12.5" stroke="url(#paint1_linear_781_12)"/>
</g>
<path d="M91.35 40V22.5H98.95C100 22.5 100.958 22.75 101.825 23.25C102.692 23.7333 103.375 24.4 103.875 25.25C104.392 26.0833 104.65 27.025 104.65 28.075C104.65 29.075 104.392 30 103.875 30.85C103.375 31.6833 102.692 32.35 101.825 32.85C100.975 33.3333 100.017 33.575 98.95 33.575H94.525V40H91.35ZM101.5 40L97.05 32.1L100.4 31.475L105.35 40.025L101.5 40ZM94.525 30.75H98.975C99.4583 30.75 99.875 30.6417 100.225 30.425C100.592 30.1917 100.875 29.875 101.075 29.475C101.275 29.075 101.375 28.6333 101.375 28.15C101.375 27.6 101.25 27.125 101 26.725C100.75 26.325 100.4 26.0083 99.95 25.775C99.5 25.5417 98.9833 25.425 98.4 25.425H94.525V30.75ZM115.032 40V22.5H126.482V25.45H118.232V37.05H126.582V40H115.032ZM116.532 32.5V29.6H125.207V32.5H116.532ZM140.407 40V25.5H135.407V22.5H148.807V25.5H143.657V40H140.407ZM165.245 40.15C163.861 40.15 162.628 39.8583 161.545 39.275C160.461 38.675 159.603 37.8583 158.97 36.825C158.353 35.775 158.045 34.5917 158.045 33.275V22.475H161.32V33.05C161.32 33.8333 161.495 34.5333 161.845 35.15C162.211 35.75 162.695 36.2333 163.295 36.6C163.895 36.9667 164.545 37.15 165.245 37.15C166.011 37.15 166.703 36.9667 167.32 36.6C167.936 36.2333 168.42 35.75 168.77 35.15C169.136 34.5333 169.32 33.8333 169.32 33.05V22.475H172.47V33.275C172.47 34.5917 172.153 35.775 171.52 36.825C170.903 37.8583 170.053 38.675 168.97 39.275C167.886 39.8583 166.645 40.15 165.245 40.15ZM183.22 40V22.5H190.82C191.87 22.5 192.828 22.75 193.695 23.25C194.562 23.7333 195.245 24.4 195.745 25.25C196.262 26.0833 196.52 27.025 196.52 28.075C196.52 29.075 196.262 30 195.745 30.85C195.245 31.6833 194.562 32.35 193.695 32.85C192.845 33.3333 191.887 33.575 190.82 33.575H186.395V40H183.22ZM193.37 40L188.92 32.1L192.27 31.475L197.22 40.025L193.37 40ZM186.395 30.75H190.845C191.328 30.75 191.745 30.6417 192.095 30.425C192.462 30.1917 192.745 29.875 192.945 29.475C193.145 29.075 193.245 28.6333 193.245 28.15C193.245 27.6 193.12 27.125 192.87 26.725C192.62 26.325 192.27 26.0083 191.82 25.775C191.37 25.5417 190.853 25.425 190.27 25.425H186.395V30.75ZM206.902 40V22.5H209.827L219.977 36.175L219.427 36.275C219.36 35.8083 219.302 35.3333 219.252 34.85C219.202 34.35 219.152 33.8333 219.102 33.3C219.068 32.7667 219.035 32.2083 219.002 31.625C218.985 31.0417 218.968 30.4333 218.952 29.8C218.935 29.15 218.927 28.4667 218.927 27.75V22.5H222.152V40H219.177L208.977 26.525L209.627 26.35C209.71 27.2833 209.777 28.0833 209.827 28.75C209.893 29.4 209.943 29.9667 209.977 30.45C210.01 30.9167 210.035 31.3083 210.052 31.625C210.085 31.9417 210.102 32.2333 210.102 32.5C210.118 32.75 210.127 32.9917 210.127 33.225V40H206.902Z" fill="#878787"/>
<path d="M43 30.5C43.8284 30.5 44.5 31.1716 44.5 32C44.5 32.8284 43.8284 33.5 43 33.5V30.5ZM16.9393 33.0607C16.3536 32.4749 16.3536 31.5251 16.9393 30.9393L26.4853 21.3934C27.0711 20.8076 28.0208 20.8076 28.6066 21.3934C29.1924 21.9792 29.1924 22.9289 28.6066 23.5147L20.1213 32L28.6066 40.4853C29.1924 41.0711 29.1924 42.0208 28.6066 42.6066C28.0208 43.1924 27.0711 43.1924 26.4853 42.6066L16.9393 33.0607ZM43 33.5H18V30.5H43V33.5Z" fill="white"/>
<defs>
<filter id="filter0_b_781_12" x="-25" y="-25" width="112" height="112" filterUnits="userSpaceOnUse" color-interpolation-filters="sRGB">
<feFlood flood-opacity="0" result="BackgroundImageFix"/>
<feGaussianBlur in="BackgroundImageFix" stdDeviation="12.5"/>
<feComposite in2="SourceAlpha" operator="in" result="effect1_backgroundBlur_781_12"/>
<feBlend mode="normal" in="SourceGraphic" in2="effect1_backgroundBlur_781_12" result="shape"/>
</filter>
<linearGradient id="paint0_linear_781_12" x1="-4.42857" y1="-2.54098" x2="31.3305" y2="15.5918" gradientUnits="userSpaceOnUse">
<stop stop-color="#5CC4DC"/>
<stop offset="0.867741" stop-color="#5CC4DC" stop-opacity="0"/>
</linearGradient>
<linearGradient id="paint1_linear_781_12" x1="64.7679" y1="78.7705" x2="35.8691" y2="58.1463" gradientUnits="userSpaceOnUse">
<stop stop-color="#15EDED"/>
<stop offset="1" stop-color="#15EDED" stop-opacity="0"/>
</linearGradient>
</defs>
</svg>
