<svg width="274" height="92" viewBox="0 0 274 92" fill="none" xmlns="http://www.w3.org/2000/svg">
<g filter="url(#filter0_b_781_17)">
<rect width="92" height="92" rx="13" fill="#D9D9D9" fill-opacity="0.06"/>
<rect x="1.25" y="1.25" width="89.5" height="89.5" rx="11.75" stroke="url(#paint0_linear_781_17)" stroke-width="2.5"/>
<rect x="1.25" y="1.25" width="89.5" height="89.5" rx="11.75" stroke="url(#paint1_linear_781_17)" stroke-width="2.5"/>
</g>
<path d="M134.35 55V37.5H141.95C143 37.5 143.958 37.75 144.825 38.25C145.692 38.7333 146.375 39.4 146.875 40.25C147.392 41.0833 147.65 42.025 147.65 43.075C147.65 44.075 147.392 45 146.875 45.85C146.375 46.6833 145.692 47.35 144.825 47.85C143.975 48.3333 143.017 48.575 141.95 48.575H137.525V55H134.35ZM144.5 55L140.05 47.1L143.4 46.475L148.35 55.025L144.5 55ZM137.525 45.75H141.975C142.458 45.75 142.875 45.6417 143.225 45.425C143.592 45.1917 143.875 44.875 144.075 44.475C144.275 44.075 144.375 43.6333 144.375 43.15C144.375 42.6 144.25 42.125 144 41.725C143.75 41.325 143.4 41.0083 142.95 40.775C142.5 40.5417 141.983 40.425 141.4 40.425H137.525V45.75ZM158.032 55V37.5H169.482V40.45H161.232V52.05H169.582V55H158.032ZM159.532 47.5V44.6H168.207V47.5H159.532ZM183.407 55V40.5H178.407V37.5H191.807V40.5H186.657V55H183.407ZM208.245 55.15C206.861 55.15 205.628 54.8583 204.545 54.275C203.461 53.675 202.603 52.8583 201.97 51.825C201.353 50.775 201.045 49.5917 201.045 48.275V37.475H204.32V48.05C204.32 48.8333 204.495 49.5333 204.845 50.15C205.211 50.75 205.695 51.2333 206.295 51.6C206.895 51.9667 207.545 52.15 208.245 52.15C209.011 52.15 209.703 51.9667 210.32 51.6C210.936 51.2333 211.42 50.75 211.77 50.15C212.136 49.5333 212.32 48.8333 212.32 48.05V37.475H215.47V48.275C215.47 49.5917 215.153 50.775 214.52 51.825C213.903 52.8583 213.053 53.675 211.97 54.275C210.886 54.8583 209.645 55.15 208.245 55.15ZM226.22 55V37.5H233.82C234.87 37.5 235.828 37.75 236.695 38.25C237.562 38.7333 238.245 39.4 238.745 40.25C239.262 41.0833 239.52 42.025 239.52 43.075C239.52 44.075 239.262 45 238.745 45.85C238.245 46.6833 237.562 47.35 236.695 47.85C235.845 48.3333 234.887 48.575 233.82 48.575H229.395V55H226.22ZM236.37 55L231.92 47.1L235.27 46.475L240.22 55.025L236.37 55ZM229.395 45.75H233.845C234.328 45.75 234.745 45.6417 235.095 45.425C235.462 45.1917 235.745 44.875 235.945 44.475C236.145 44.075 236.245 43.6333 236.245 43.15C236.245 42.6 236.12 42.125 235.87 41.725C235.62 41.325 235.27 41.0083 234.82 40.775C234.37 40.5417 233.853 40.425 233.27 40.425H229.395V45.75ZM249.902 55V37.5H252.827L262.977 51.175L262.427 51.275C262.36 50.8083 262.302 50.3333 262.252 49.85C262.202 49.35 262.152 48.8333 262.102 48.3C262.068 47.7667 262.035 47.2083 262.002 46.625C261.985 46.0417 261.968 45.4333 261.952 44.8C261.935 44.15 261.927 43.4667 261.927 42.75V37.5H265.152V55H262.177L251.977 41.525L252.627 41.35C252.71 42.2833 252.777 43.0833 252.827 43.75C252.893 44.4 252.943 44.9667 252.977 45.45C253.01 45.9167 253.035 46.3083 253.052 46.625C253.085 46.9417 253.102 47.2333 253.102 47.5C253.118 47.75 253.127 47.9917 253.127 48.225V55H249.902Z" fill="#878787"/>
<path d="M63.8064 45.4844C64.911 45.4844 65.8064 46.3798 65.8064 47.4844C65.8064 48.5889 64.911 49.4844 63.8064 49.4844V45.4844ZM25.2955 48.8986C24.5144 48.1175 24.5144 46.8512 25.2955 46.0702L38.0234 33.3422C38.8044 32.5612 40.0708 32.5612 40.8518 33.3422C41.6329 34.1233 41.6329 35.3896 40.8518 36.1707L29.5381 47.4844L40.8518 58.7981C41.6329 59.5791 41.6329 60.8455 40.8518 61.6265C40.0708 62.4076 38.8044 62.4076 38.0234 61.6265L25.2955 48.8986ZM63.8064 49.4844H26.7097V45.4844H63.8064V49.4844Z" fill="white"/>
<defs>
<filter id="filter0_b_781_17" x="-25" y="-25" width="142" height="142" filterUnits="userSpaceOnUse" color-interpolation-filters="sRGB">
<feFlood flood-opacity="0" result="BackgroundImageFix"/>
<feGaussianBlur in="BackgroundImageFix" stdDeviation="12.5"/>
<feComposite in2="SourceAlpha" operator="in" result="effect1_backgroundBlur_781_17"/>
<feBlend mode="normal" in="SourceGraphic" in2="effect1_backgroundBlur_781_17" result="shape"/>
</filter>
<linearGradient id="paint0_linear_781_17" x1="-6.57143" y1="-3.77049" x2="46.4904" y2="23.1362" gradientUnits="userSpaceOnUse">
<stop stop-color="#5CC4DC"/>
<stop offset="0.867741" stop-color="#5CC4DC" stop-opacity="0"/>
</linearGradient>
<linearGradient id="paint1_linear_781_17" x1="96.1071" y1="116.885" x2="53.2251" y2="86.2816" gradientUnits="userSpaceOnUse">
<stop stop-color="#15EDED"/>
<stop offset="1" stop-color="#15EDED" stop-opacity="0"/>
</linearGradient>
</defs>
</svg>
