<svg width="184" height="62" fill="none" xmlns="http://www.w3.org/2000/svg"><g filter="url('#filter0_b_781_10')"><rect width="62" height="62" rx="13" fill="#D9D9D9" fill-opacity=".06"/><rect x=".5" y=".5" width="61" height="61" rx="12.5" stroke="url('#paint0_linear_781_10')"/><rect x=".5" y=".5" width="61" height="61" rx="12.5" stroke="url('#paint1_linear_781_10')"/></g><path d="M91.35 40V22.5h7.45c1.15 0 2.117.167 2.9.5.8.333 1.4.833 1.8 1.5.417.65.625 1.442.625 2.375 0 .967-.258 1.783-.775 2.45-.517.667-1.242 1.125-2.175 1.375l-.025-.5c.783.167 1.467.467 2.05.9a4.247 4.247 0 0 1 1.35 1.575c.333.617.5 1.325.5 2.125 0 .85-.142 1.6-.425 2.25a4.033 4.033 0 0 1-1.2 1.625 5.734 5.734 0 0 1-1.9 1c-.733.217-1.558.325-2.475.325h-7.7Zm3.175-2.925H98.9c.617 0 1.133-.092 1.55-.275.433-.183.758-.45.975-.8.233-.367.35-.8.35-1.3 0-.467-.125-.867-.375-1.2-.233-.333-.575-.583-1.025-.75-.45-.183-.983-.275-1.6-.275h-4.25v4.6Zm0-7.4H98.5c.483 0 .9-.092 1.25-.275.367-.183.65-.433.85-.75.2-.317.3-.683.3-1.1 0-.667-.225-1.183-.675-1.55-.45-.383-1.108-.575-1.975-.575h-3.725v4.25ZM112.862 40l6.825-17.5h3.05l6.775 17.5h-3.375l-3.75-9.95c-.083-.2-.2-.517-.35-.95-.133-.433-.283-.9-.45-1.4a101.66 101.66 0 0 1-.45-1.425c-.133-.45-.233-.775-.3-.975l.625-.025c-.1.333-.217.708-.35 1.125-.133.417-.275.85-.425 1.3-.15.45-.3.883-.45 1.3-.133.417-.258.792-.375 1.125L116.112 40h-3.25Zm3.1-4 1.125-2.825h7.975l1.2 2.825h-10.3Zm29.493 4.25c-1.267 0-2.425-.217-3.475-.65a7.898 7.898 0 0 1-2.725-1.85 8.928 8.928 0 0 1-1.8-2.875c-.417-1.117-.625-2.333-.625-3.65 0-1.267.225-2.442.675-3.525a8.92 8.92 0 0 1 1.875-2.85 8.504 8.504 0 0 1 2.8-1.9c1.066-.45 2.225-.675 3.475-.675.85 0 1.675.125 2.475.375s1.533.6 2.2 1.05a6.718 6.718 0 0 1 1.675 1.525L149.93 27.5a7.603 7.603 0 0 0-1.35-1.125 4.926 4.926 0 0 0-1.425-.7 4.574 4.574 0 0 0-1.5-.25 5.62 5.62 0 0 0-2.175.425 5.284 5.284 0 0 0-1.75 1.2 5.774 5.774 0 0 0-1.15 1.85c-.284.7-.425 1.483-.425 2.35 0 .883.133 1.683.4 2.4a5.566 5.566 0 0 0 1.175 1.85 5.425 5.425 0 0 0 1.825 1.2c.716.267 1.5.4 2.35.4a5.798 5.798 0 0 0 3.025-.85c.45-.283.858-.608 1.225-.975l1.6 2.575c-.4.45-.934.858-1.6 1.225a9.743 9.743 0 0 1-2.25.875c-.817.2-1.634.3-2.45.3Zm18.49-5.475-.5-3.225 9-9.05h4.075l-12.575 12.275ZM161.37 40V22.5h3.25V40h-3.25Zm11.475 0-6.625-8.825 2.3-1.975 8.275 10.8h-3.95Z" fill="#878787"/><path d="M43 30.5a1.5 1.5 0 0 1 0 3v-3Zm-26.06 2.56a1.5 1.5 0 0 1 0-2.12l9.545-9.547a1.5 1.5 0 1 1 2.122 2.122L20.12 32l8.486 8.485a1.5 1.5 0 1 1-2.122 2.122L16.94 33.06ZM43 33.5H18v-3h25v3Z" fill="#fff"/><defs><linearGradient id="paint0_linear_781_10" x1="-4.429" y1="-2.541" x2="31.331" y2="15.592" gradientUnits="userSpaceOnUse"><stop stop-color="#5CC4DC"/><stop offset=".868" stop-color="#5CC4DC" stop-opacity="0"/></linearGradient><linearGradient id="paint1_linear_781_10" x1="64.768" y1="78.77" x2="35.869" y2="58.146" gradientUnits="userSpaceOnUse"><stop stop-color="#15EDED"/><stop offset="1" stop-color="#15EDED" stop-opacity="0"/></linearGradient><filter id="filter0_b_781_10" x="-25" y="-25" width="112" height="112" filterUnits="userSpaceOnUse" color-interpolation-filters="sRGB"><feFlood flood-opacity="0" result="BackgroundImageFix"/><feGaussianBlur in="BackgroundImageFix" stdDeviation="12.5"/><feComposite in2="SourceAlpha" operator="in" result="effect1_backgroundBlur_781_10"/><feBlend in="SourceGraphic" in2="effect1_backgroundBlur_781_10" result="shape"/></filter></defs></svg>