<svg width="55" height="55" fill="none" xmlns="http://www.w3.org/2000/svg"><g filter="url('#filter0_b_745_11')"><rect width="55" height="55" rx="13" fill="#D9D9D9" fill-opacity=".06"/><rect x=".5" y=".5" width="54" height="54" rx="12.5" stroke="url('#paint0_linear_745_11')"/><rect x=".5" y=".5" width="54" height="54" rx="12.5" stroke="url('#paint1_linear_745_11')"/></g><path d="M15.658 34.345a2.23 2.23 0 0 0 3.157 0l8.687-8.687 8.687 8.687a2.232 2.232 0 1 0 3.157-3.157L29.07 20.911a2.23 2.23 0 0 0-3.157 0L15.635 31.188c-.85.851-.85 2.284.023 3.157Z" fill="#fff"/><defs><linearGradient id="paint0_linear_745_11" x1="-3.929" y1="-2.254" x2="27.793" y2="13.831" gradientUnits="userSpaceOnUse"><stop stop-color="#5CC4DC"/><stop offset=".868" stop-color="#5CC4DC" stop-opacity="0"/></linearGradient><linearGradient id="paint1_linear_745_11" x1="57.455" y1="69.877" x2="31.819" y2="51.581" gradientUnits="userSpaceOnUse"><stop stop-color="#15EDED"/><stop offset="1" stop-color="#15EDED" stop-opacity="0"/></linearGradient><filter id="filter0_b_745_11" x="-25" y="-25" width="105" height="105" filterUnits="userSpaceOnUse" color-interpolation-filters="sRGB"><feFlood flood-opacity="0" result="BackgroundImageFix"/><feGaussianBlur in="BackgroundImageFix" stdDeviation="12.5"/><feComposite in2="SourceAlpha" operator="in" result="effect1_backgroundBlur_745_11"/><feBlend in="SourceGraphic" in2="effect1_backgroundBlur_745_11" result="shape"/></filter></defs></svg>