<svg width="62" height="62" fill="none" xmlns="http://www.w3.org/2000/svg"><g filter="url('#filter0_b_1_2')"><rect width="62" height="62" rx="13" fill="#D9D9D9" fill-opacity=".06"/><rect x=".5" y=".5" width="61" height="61" rx="12.5" stroke="url('#paint0_linear_1_2')"/><rect x=".5" y=".5" width="61" height="61" rx="12.5" stroke="url('#paint1_linear_1_2')"/></g><path d="M43 30.5a1.5 1.5 0 0 1 0 3v-3Zm-26.06 2.56a1.5 1.5 0 0 1 0-2.12l9.545-9.547a1.5 1.5 0 1 1 2.122 2.122L20.12 32l8.486 8.485a1.5 1.5 0 1 1-2.122 2.122L16.94 33.06ZM43 33.5H18v-3h25v3Z" fill="#fff"/><defs><linearGradient id="paint0_linear_1_2" x1="-4.429" y1="-2.541" x2="31.331" y2="15.592" gradientUnits="userSpaceOnUse"><stop stop-color="#5CC4DC"/><stop offset=".868" stop-color="#5CC4DC" stop-opacity="0"/></linearGradient><linearGradient id="paint1_linear_1_2" x1="64.768" y1="78.77" x2="35.869" y2="58.146" gradientUnits="userSpaceOnUse"><stop stop-color="#15EDED"/><stop offset="1" stop-color="#15EDED" stop-opacity="0"/></linearGradient><filter id="filter0_b_1_2" x="-25" y="-25" width="112" height="112" filterUnits="userSpaceOnUse" color-interpolation-filters="sRGB"><feFlood flood-opacity="0" result="BackgroundImageFix"/><feGaussianBlur in="BackgroundImageFix" stdDeviation="12.5"/><feComposite in2="SourceAlpha" operator="in" result="effect1_backgroundBlur_1_2"/><feBlend in="SourceGraphic" in2="effect1_backgroundBlur_1_2" result="shape"/></filter></defs></svg>