<svg width="112" height="61" fill="none" xmlns="http://www.w3.org/2000/svg"><g filter="url('#filter0_b_1_2')"><rect width="112" height="61" rx="14" fill="#D9D9D9" fill-opacity=".11"/><rect x=".75" y=".75" width="110.5" height="59.5" rx="13.25" stroke="url('#paint0_linear_1_2')" stroke-width="1.5"/><rect x=".75" y=".75" width="110.5" height="59.5" rx="13.25" stroke="url('#paint1_linear_1_2')" stroke-width="1.5"/></g><path d="M63.896 38.2c-4 0-6.02-1.6-6.02-7.82 0-5.78 2.02-7.38 6.02-7.38 4.02 0 6.04 1.6 6.04 7.38 0 6.22-2.02 7.82-6.04 7.82Zm0-2.1c2.62 0 3.74-.9 3.74-5.72 0-4.56-1.12-5.28-3.74-5.28-2.6 0-3.72.72-3.72 5.28 0 4.82 1.12 5.72 3.72 5.72ZM83.118 38l-5.54-10.82h-.08V38h-2.3V23.2h2.9l5.92 11.68h.08V23.2h2.3V38h-3.28Z" fill="#4DDEFF"/><defs><linearGradient id="paint0_linear_1_2" x1="-8" y1="-2.5" x2="35.5" y2="38" gradientUnits="userSpaceOnUse"><stop stop-color="#5CC4DC"/><stop offset=".868" stop-color="#5CC4DC" stop-opacity="0"/></linearGradient><linearGradient id="paint1_linear_1_2" x1="117" y1="77.5" x2="88" y2="39.5" gradientUnits="userSpaceOnUse"><stop stop-color="#15EDED"/><stop offset="1" stop-color="#15EDED" stop-opacity="0"/></linearGradient><filter id="filter0_b_1_2" x="-25" y="-25" width="162" height="111" filterUnits="userSpaceOnUse" color-interpolation-filters="sRGB"><feFlood flood-opacity="0" result="BackgroundImageFix"/><feGaussianBlur in="BackgroundImageFix" stdDeviation="12.5"/><feComposite in2="SourceAlpha" operator="in" result="effect1_backgroundBlur_1_2"/><feBlend in="SourceGraphic" in2="effect1_backgroundBlur_1_2" result="shape"/></filter></defs></svg>