<svg width="274" height="92" fill="none" xmlns="http://www.w3.org/2000/svg"><g filter="url('#filter0_b_781_17')"><rect width="92" height="92" rx="13" fill="#D9D9D9" fill-opacity=".06"/><rect x="1.25" y="1.25" width="89.5" height="89.5" rx="11.75" stroke="url('#paint0_linear_781_17')" stroke-width="2.5"/><rect x="1.25" y="1.25" width="89.5" height="89.5" rx="11.75" stroke="url('#paint1_linear_781_17')" stroke-width="2.5"/></g><path d="M134.35 55V37.5h7.6c1.05 0 2.008.25 2.875.75a5.368 5.368 0 0 1 2.05 2c.517.833.775 1.775.775 2.825 0 1-.258 1.925-.775 2.775-.5.833-1.183 1.5-2.05 2-.85.483-1.808.725-2.875.725h-4.425V55h-3.175Zm10.15 0-4.45-7.9 3.35-.625 4.95 8.55L144.5 55Zm-6.975-9.25h4.45c.483 0 .9-.108 1.25-.325.367-.233.65-.55.85-.95.2-.4.3-.842.3-1.325 0-.55-.125-1.025-.375-1.425-.25-.4-.6-.717-1.05-.95-.45-.233-.967-.35-1.55-.35h-3.875v5.325ZM158.032 55V37.5h11.45v2.95h-8.25v11.6h8.35V55h-11.55Zm1.5-7.5v-2.9h8.675v2.9h-8.675Zm23.875 7.5V40.5h-5v-3h13.4v3h-5.15V55h-3.25Zm24.838.15c-1.384 0-2.617-.292-3.7-.875a6.857 6.857 0 0 1-2.575-2.45c-.617-1.05-.925-2.233-.925-3.55v-10.8h3.275V48.05c0 .783.175 1.483.525 2.1.366.6.85 1.083 1.45 1.45s1.25.55 1.95.55c.766 0 1.458-.183 2.075-.55.616-.367 1.1-.85 1.45-1.45.366-.617.55-1.317.55-2.1V37.475h3.15v10.8c0 1.317-.317 2.5-.95 3.55a6.68 6.68 0 0 1-2.55 2.45c-1.084.583-2.325.875-3.725.875ZM226.22 55V37.5h7.6c1.05 0 2.008.25 2.875.75a5.368 5.368 0 0 1 2.05 2c.517.833.775 1.775.775 2.825 0 1-.258 1.925-.775 2.775-.5.833-1.183 1.5-2.05 2-.85.483-1.808.725-2.875.725h-4.425V55h-3.175Zm10.15 0-4.45-7.9 3.35-.625 4.95 8.55-3.85-.025Zm-6.975-9.25h4.45c.483 0 .9-.108 1.25-.325.367-.233.65-.55.85-.95.2-.4.3-.842.3-1.325 0-.55-.125-1.025-.375-1.425-.25-.4-.6-.717-1.05-.95-.45-.233-.967-.35-1.55-.35h-3.875v5.325ZM249.902 55V37.5h2.925l10.15 13.675-.55.1a36.362 36.362 0 0 1-.175-1.425c-.05-.5-.1-1.017-.15-1.55-.034-.533-.067-1.092-.1-1.675a468.8 468.8 0 0 1-.05-1.825 78.614 78.614 0 0 1-.025-2.05V37.5h3.225V55h-2.975l-10.2-13.475.65-.175c.083.933.15 1.733.2 2.4a56.057 56.057 0 0 1 .225 2.875c.033.317.05.608.05.875.016.25.025.492.025.725V55h-3.225Z" fill="#878787"/><path d="M63.806 45.484a2 2 0 1 1 0 4v-4ZM25.296 48.9a2 2 0 0 1 0-2.829l12.727-12.728a2 2 0 0 1 2.829 2.829L29.538 47.484l11.314 11.314a2 2 0 1 1-2.829 2.828L25.295 48.9Zm38.51.585H26.71v-4h37.096v4Z" fill="#fff"/><defs><linearGradient id="paint0_linear_781_17" x1="-6.571" y1="-3.77" x2="46.49" y2="23.136" gradientUnits="userSpaceOnUse"><stop stop-color="#5CC4DC"/><stop offset=".868" stop-color="#5CC4DC" stop-opacity="0"/></linearGradient><linearGradient id="paint1_linear_781_17" x1="96.107" y1="116.885" x2="53.225" y2="86.282" gradientUnits="userSpaceOnUse"><stop stop-color="#15EDED"/><stop offset="1" stop-color="#15EDED" stop-opacity="0"/></linearGradient><filter id="filter0_b_781_17" x="-25" y="-25" width="142" height="142" filterUnits="userSpaceOnUse" color-interpolation-filters="sRGB"><feFlood flood-opacity="0" result="BackgroundImageFix"/><feGaussianBlur in="BackgroundImageFix" stdDeviation="12.5"/><feComposite in2="SourceAlpha" operator="in" result="effect1_backgroundBlur_781_17"/><feBlend in="SourceGraphic" in2="effect1_backgroundBlur_781_17" result="shape"/></filter></defs></svg>